<svg width="20" height="20" viewBox="0 0 20 20" fill="none" xmlns="http://www.w3.org/2000/svg">
<path d="M13.0225 0.2325C11.0225 -0.0775 8.9825 -0.0775 6.9825 0.2325C6.1625 0.3625 5.56249 1.06249 5.56249 1.88249V5.56249H1.88249C1.06249 5.56249 0.3625 6.1625 0.2325 6.9825C-0.0775 8.9825 -0.0775 11.0225 0.2325 13.0225C0.3625 13.8425 1.06249 14.4425 1.88249 14.4425H5.56249V12.2225C5.56249 10.9925 6.55249 10.0025 7.78249 10.0025H12.2225C13.4525 10.0025 14.4425 9.0025 14.4425 7.7825V1.88249C14.4425 1.06249 13.8425 0.3625 13.0225 0.2325ZM8.33248 3.5825C7.92248 3.5825 7.52248 3.19249 7.52248 2.77249C7.52248 2.35249 7.91248 1.9725 8.33248 1.9725C8.52248 1.9725 8.7525 2.0625 8.8925 2.1925C9.0425 2.3325 9.1425 2.57249 9.1425 2.77249C9.1425 3.19249 8.75248 3.5825 8.33248 3.5825Z" fill="#FF4E00"/>
<path d="M19.7725 6.98251C19.6425 6.16251 18.9425 5.5625 18.1225 5.5625H14.4425V7.7825C14.4425 9.0025 13.4525 10.0025 12.2225 10.0025H7.7825C6.5525 10.0025 5.5625 10.9925 5.5625 12.2225V18.1225C5.5625 18.9425 6.16251 19.6425 6.98251 19.7725C8.98251 20.0825 11.0225 20.0825 13.0225 19.7725C13.8425 19.6425 14.4425 18.9425 14.4425 18.1225V14.4425H18.1225C18.9425 14.4425 19.6425 13.8425 19.7725 13.0225C20.0825 11.0225 20.0825 8.98251 19.7725 6.98251ZM11.6725 18.0325C11.2625 18.0325 10.8625 17.6425 10.8625 17.2225C10.8625 16.8025 11.2525 16.4125 11.6725 16.4125C11.8625 16.4125 12.0925 16.5025 12.2325 16.6325C12.3825 16.7725 12.4825 17.0125 12.4825 17.2125C12.4725 17.6425 12.0825 18.0325 11.6725 18.0325Z" fill="#FFA47D"/>
<circle cx="8.5" cy="3.5" r="1.5" fill="#FF4E00"/>
<circle cx="11.5" cy="17.5" r="1.5" fill="#FFA47D"/>
</svg>
