<svg width="24" height="24" viewBox="0 0 24 24" fill="none" xmlns="http://www.w3.org/2000/svg">
<path d="M20.5412 19.0403C20.3912 19.1903 20.2012 19.2603 20.0112 19.2603C19.8212 19.2603 19.6312 19.1903 19.4812 19.0403L14.5312 14.0903L15.0612 13.5603L15.5912 13.0303L20.5412 17.9803C20.8312 18.2703 20.8312 18.7503 20.5412 19.0403Z" fill="#FF4E00"/>
<path d="M6.46938 9.28009L12.2694 15.0801C12.6594 15.4701 12.6594 16.1001 12.2694 16.4901L11.3694 17.4001C10.5594 18.2001 9.27937 18.2001 8.47937 17.4001L4.13938 13.0601C3.34938 12.2701 3.34938 10.9801 4.13938 10.1801L5.04938 9.27009C5.43938 8.89009 6.07938 8.89009 6.46938 9.28009Z" fill="#FFA47D"/>
<path d="M18.5895 10.1904L14.7795 13.9904C14.3795 14.3904 13.7395 14.3904 13.3395 13.9904L7.56953 8.22043C7.16953 7.82043 7.16953 7.18043 7.56953 6.78043L11.3795 2.97043C12.1695 2.18043 13.4595 2.18043 14.2595 2.97043L18.5995 7.31043C19.3795 8.10043 19.3795 9.38043 18.5895 10.1904Z" fill="#FF4E00"/>
<path d="M8 21.75H2C1.59 21.75 1.25 21.41 1.25 21C1.25 20.59 1.59 20.25 2 20.25H8C8.41 20.25 8.75 20.59 8.75 21C8.75 21.41 8.41 21.75 8 21.75Z" fill="#FFA47D"/>
</svg>
