<svg width="24" height="24" viewBox="0 0 24 24" fill="none" xmlns="http://www.w3.org/2000/svg">
<path d="M2.02782 14.6309C2.02782 14.6609 2.00781 14.7009 2.00781 14.7309C2.92781 16.5709 4.42782 18.0808 6.26782 18.9908C6.29782 18.9908 6.33781 18.9709 6.36781 18.9709C6.02781 17.8109 5.76782 16.6208 5.57782 15.4308C4.37782 15.2308 3.18782 14.9709 2.02782 14.6309Z" fill="#FF8A00"/>
<path d="M19.0681 6.42944C18.1281 4.45944 16.5381 2.86945 14.5781 1.93945C14.9381 3.12945 15.2381 4.34946 15.4381 5.56946C16.6581 5.76946 17.8781 6.05944 19.0681 6.42944Z" fill="#FF8A00"/>
<path d="M1.92969 6.42953C3.12969 6.06953 4.3497 5.76955 5.5697 5.56955C5.7697 4.37955 6.0197 3.19955 6.3597 2.03955C6.3297 2.03955 6.28969 2.01953 6.25969 2.01953C4.37969 2.94953 2.84969 4.51954 1.92969 6.42953Z" fill="#FF8A00"/>
<path d="M13.8197 5.36023C13.5797 4.06023 13.2797 2.76024 12.8497 1.50024C12.8297 1.43024 12.8297 1.37025 12.8197 1.29025C12.0797 1.11025 11.2997 0.990234 10.4997 0.990234C9.68969 0.990234 8.91969 1.10025 8.16969 1.29025C8.15969 1.36025 8.16969 1.42024 8.14969 1.50024C7.72969 2.76024 7.41969 4.06023 7.17969 5.36023C9.38969 5.12023 11.6097 5.12023 13.8197 5.36023Z" fill="#FF8A00"/>
<path d="M5.36218 7.17969C4.05218 7.41969 2.76218 7.71969 1.50218 8.14969C1.43218 8.16969 1.37218 8.16969 1.29218 8.17969C1.11218 8.91969 0.992188 9.69969 0.992188 10.4997C0.992188 11.3097 1.10218 12.0797 1.29218 12.8297C1.36218 12.8397 1.42218 12.8297 1.50218 12.8497C2.76218 13.2697 4.05218 13.5797 5.36218 13.8197C5.12218 11.6097 5.12218 9.38969 5.36218 7.17969Z" fill="#FF8A00"/>
<path d="M19.7028 8.17969C19.6328 8.17969 19.5728 8.16969 19.4928 8.14969C18.2328 7.72969 16.9328 7.41969 15.6328 7.17969C15.8828 9.38969 15.8828 11.6097 15.6328 13.8097C16.9328 13.5697 18.2328 13.2697 19.4928 12.8397C19.5628 12.8197 19.6228 12.8297 19.7028 12.8197C19.8828 12.0697 20.0028 11.2997 20.0028 10.4897C20.0028 9.69969 19.8928 8.92969 19.7028 8.17969Z" fill="#FF8A00"/>
<path d="M7.17969 15.6406C7.41969 16.9506 7.71969 18.2406 8.14969 19.5006C8.16969 19.5706 8.15969 19.6306 8.16969 19.7106C8.91969 19.8906 9.68969 20.0106 10.4997 20.0106C11.2997 20.0106 12.0797 19.9006 12.8197 19.7106C12.8297 19.6406 12.8297 19.5806 12.8497 19.5006C13.2697 18.2406 13.5797 16.9506 13.8197 15.6406C12.7197 15.7606 11.6097 15.8506 10.4997 15.8506C9.38969 15.8406 8.27969 15.7606 7.17969 15.6406Z" fill="#FF8A00"/>
<path d="M6.95156 6.94961C6.65156 9.30961 6.65156 11.6896 6.95156 14.0596C9.31156 14.3596 11.6916 14.3596 14.0616 14.0596C14.3616 11.6996 14.3616 9.31961 14.0616 6.94961C11.6916 6.64961 9.31156 6.64961 6.95156 6.94961Z" fill="#FF8A00"/>
<path d="M20.58 12C19.51 12 18.54 12.52 17.94 13.32C17.34 12.52 16.38 12 15.3 12C13.48 12 12 13.48 12 15.32C12 16.03 12.11 16.68 12.31 17.28C13.25 20.25 16.14 22.02 17.57 22.51C17.77 22.58 18.1 22.58 18.31 22.51C19.74 22.02 22.63 20.25 23.57 17.28C23.77 16.67 23.88 16.02 23.88 15.32C23.88 13.48 22.4 12 20.58 12Z" fill="#FF4E00"/>
</svg>
