<svg width="20" height="20" viewBox="0 0 20 20" fill="none" xmlns="http://www.w3.org/2000/svg">
<path d="M19.13 18.2604H0.869507C0.389467 18.2604 0 17.8709 0 17.3909C0 16.9108 0.389467 16.5214 0.869507 16.5214H19.13C19.61 16.5214 19.9995 16.9108 19.9995 17.3909C19.9995 17.8709 19.61 18.2604 19.13 18.2604Z" fill="#C8C8C8"/>
<path d="M8.26042 14.7825H3.91248C3.43226 14.7825 3.04297 15.1718 3.04297 15.652V19.1304C3.04297 19.6106 3.43226 19.9999 3.91248 19.9999H8.26042C8.74064 19.9999 9.12993 19.6106 9.12993 19.1304V15.652C9.12993 15.1718 8.74064 14.7825 8.26042 14.7825Z" fill="#888888"/>
<path d="M19.13 10.8691H0.869507C0.389467 10.8691 0 10.4797 0 9.99963C0 9.51959 0.389467 9.13013 0.869507 9.13013H19.13C19.61 9.13013 19.9995 9.51959 19.9995 9.99963C19.9995 10.4797 19.61 10.8691 19.13 10.8691Z" fill="#C8C8C8"/>
<path d="M19.13 3.47815H0.869507C0.389467 3.47815 0 3.08868 0 2.60864C0 2.1286 0.389467 1.73914 0.869507 1.73914H19.13C19.61 1.73914 19.9995 2.1286 19.9995 2.60864C19.9995 3.08868 19.61 3.47815 19.13 3.47815Z" fill="#C8C8C8"/>
<path d="M8.26042 0H3.91248C3.43226 0 3.04297 0.389292 3.04297 0.869507V4.34795C3.04297 4.82816 3.43226 5.21746 3.91248 5.21746H8.26042C8.74064 5.21746 9.12993 4.82816 9.12993 4.34795V0.869507C9.12993 0.389292 8.74064 0 8.26042 0Z" fill="#888888"/>
<path d="M16.0866 7.39124H11.7386C11.2584 7.39124 10.8691 7.78053 10.8691 8.26074V11.7392C10.8691 12.2194 11.2584 12.6087 11.7386 12.6087H16.0866C16.5668 12.6087 16.9561 12.2194 16.9561 11.7392V8.26074C16.9561 7.78053 16.5668 7.39124 16.0866 7.39124Z" fill="#888888"/>
</svg>
