<svg width="22" height="22" viewBox="0 0 22 22" fill="none" xmlns="http://www.w3.org/2000/svg">
<g clip-path="url(#clip0_451_3160)">
<path d="M18.7778 3.13496C14.4333 -1.12099 7.47702 -1.03258 3.24156 3.33287C0.0702155 6.60006 -0.772678 11.4927 1.12222 15.6408L0.0233878 20.6519C-0.0525048 21.0153 0.0589121 21.3933 0.319692 21.6561C0.582087 21.9335 0.968817 22.0543 1.34182 21.9765L6.32975 20.8725C7.78866 21.5871 9.38725 21.9643 11.0101 21.9765C11.6915 21.974 12.3721 21.9108 13.043 21.7891C19.0062 20.6616 22.9309 14.8905 21.8086 8.89958C21.3993 6.71524 20.3433 4.7061 18.7786 3.13415L18.7778 3.13496Z" fill="#C8C8C8"/>
<path d="M15.0535 16.4576C13.9078 16.4357 12.7815 16.1567 11.757 15.6408L11.581 15.5524C10.4789 14.979 9.47375 14.2344 8.6034 13.3446C7.71611 12.4726 6.97413 11.4628 6.40575 10.3531L6.31774 10.1763C5.69445 9.00182 5.41591 7.67321 5.51602 6.34621C5.60322 5.80601 6.07069 5.4118 6.61485 5.4191H8.6034C9.10801 5.39883 9.56094 5.72652 9.70223 6.214L10.1414 7.75918C10.2601 8.15014 10.1544 8.57436 9.86694 8.86312L8.76811 9.96705C9.18471 10.6249 9.67075 11.2356 10.2181 11.788C10.7663 12.3404 11.3743 12.8295 12.0307 13.2448L13.1295 12.1409C13.4169 11.8521 13.8392 11.7458 14.2283 11.8651L15.7664 12.3063C16.2508 12.4483 16.5778 12.9033 16.5576 13.4103V15.3529C16.5649 15.8996 16.1717 16.3692 15.6348 16.4568C15.441 16.469 15.2464 16.469 15.0527 16.4568L15.0535 16.4576Z" fill="#888888"/>
</g>
<defs>
<clipPath id="clip0_451_3160">
<rect width="22" height="22" fill="white"/>
</clipPath>
</defs>
</svg>
