<svg width="10" height="6" viewBox="0 0 10 6" fill="none" xmlns="http://www.w3.org/2000/svg">
<path d="M5.00033 5.47909C4.88921 5.47909 4.78171 5.45825 4.67782 5.41658C4.57338 5.37492 4.48644 5.31936 4.41699 5.24992L0.583659 1.41659C0.430881 1.26381 0.354492 1.06936 0.354492 0.833251C0.354492 0.59714 0.430881 0.402696 0.583659 0.249918C0.736436 0.0971405 0.930881 0.020752 1.16699 0.020752C1.4031 0.020752 1.59755 0.0971405 1.75033 0.249918L5.00033 3.49992L8.25032 0.249918C8.4031 0.0971405 8.59755 0.020752 8.83366 0.020752C9.06977 0.020752 9.26421 0.0971405 9.41699 0.249918C9.56977 0.402696 9.64616 0.59714 9.64616 0.833251C9.64616 1.06936 9.56977 1.26381 9.41699 1.41659L5.58366 5.24992C5.50033 5.33325 5.41005 5.39214 5.31283 5.42658C5.2156 5.46158 5.11144 5.47909 5.00033 5.47909Z" fill="#242424"/>
</svg>
