<svg width="36" height="36" viewBox="0 0 36 36" fill="none" xmlns="http://www.w3.org/2000/svg">
<rect width="36" height="36" rx="18" fill="#FF4E00"/>
<path d="M13.8593 25.2948V15.5702H10.6298V25.2948H13.8596H13.8593ZM12.2452 14.2426C13.3711 14.2426 14.0721 13.4959 14.0721 12.5627C14.051 11.6082 13.3711 10.8823 12.2666 10.8823C11.1613 10.8823 10.4395 11.6082 10.4395 12.5626C10.4395 13.4958 11.1402 14.2426 12.224 14.2426H12.245L12.2452 14.2426ZM15.6468 25.2948H18.876V19.8647C18.876 19.5744 18.8971 19.2834 18.9824 19.0761C19.2157 18.4952 19.7471 17.8938 20.6394 17.8938C21.8077 17.8938 22.2753 18.7855 22.2753 20.0929V25.2948H25.5044V19.719C25.5044 16.7321 23.9115 15.3422 21.7868 15.3422C20.0448 15.3422 19.2798 16.3166 18.8548 16.9803H18.8763V15.5705H15.647C15.6891 16.4828 15.6467 25.2951 15.6467 25.2951L15.6468 25.2948Z" fill="white"/>
</svg>
