<svg width="172" height="60" viewBox="0 0 172 60" fill="none" xmlns="http://www.w3.org/2000/svg">
<g clip-path="url(#clip0_426_12715)">
<path d="M112.763 44.7807C111.538 44.7807 110.48 44.5515 109.592 44.0935C108.703 43.6356 107.961 43.0248 107.365 42.2617C106.77 41.4985 106.326 40.6397 106.032 39.6855C105.739 38.7314 105.592 37.758 105.592 36.7656V36.2218C105.592 35.172 105.743 34.1657 106.045 33.2017C106.347 32.2381 106.8 31.3793 107.404 30.6256C108.008 29.8719 108.755 29.2706 109.644 28.8221C110.532 28.3736 111.564 28.1493 112.737 28.1493C113.962 28.1493 115.058 28.4118 116.025 28.9367C116.991 29.4616 117.764 30.1915 118.342 31.1263C118.92 32.0615 119.243 33.1492 119.312 34.3896H115.818C115.731 33.5882 115.425 32.9204 114.899 32.386C114.372 31.8517 113.652 31.5846 112.737 31.5846C111.943 31.5846 111.283 31.7945 110.757 32.2143C110.23 32.6341 109.838 33.2112 109.579 33.946C109.32 34.6808 109.19 35.5252 109.19 36.4794C109.19 37.3953 109.316 38.2254 109.566 38.9697C109.816 39.7139 110.204 40.2959 110.731 40.7161C111.257 41.1358 111.935 41.3457 112.763 41.3457C113.384 41.3457 113.919 41.2217 114.368 40.9736C114.817 40.7255 115.175 40.3821 115.442 39.9431C115.71 39.504 115.878 39.0078 115.947 38.4546H119.442C119.373 39.7139 119.041 40.8163 118.445 41.7606C117.85 42.7053 117.065 43.445 116.089 43.9793C115.114 44.5137 114.006 44.7807 112.763 44.7807ZM144.864 34.6475H147.737V34.5042C147.737 33.6075 147.539 32.9393 147.142 32.5006C146.745 32.0615 146.132 31.8422 145.304 31.8422C144.872 31.8422 144.355 31.8517 143.75 31.8706C143.146 31.8898 142.538 31.9137 141.925 31.9424C141.313 31.9708 140.765 32.0044 140.282 32.0426V28.6648C140.678 28.6266 141.127 28.5884 141.628 28.5502C142.128 28.512 142.642 28.4882 143.168 28.4787C143.694 28.4692 144.191 28.4643 144.657 28.4643C146.106 28.4643 147.31 28.6742 148.268 29.094C149.226 29.5138 149.951 30.1722 150.442 31.0692C150.934 31.9662 151.18 33.1397 151.18 34.59V44.2369H148.333V41.2574C148.22 41.6544 148.077 42.0178 147.905 42.3475C147.517 43.0918 146.982 43.6594 146.3 44.0508C145.619 44.4418 144.786 44.6377 143.802 44.6377C142.784 44.6377 141.891 44.4373 141.123 44.0364C140.355 43.6356 139.759 43.063 139.337 42.3188C138.914 41.5745 138.702 40.6778 138.702 39.6281C138.702 38.4833 138.957 37.5481 139.466 36.8228C139.975 36.0978 140.691 35.554 141.615 35.1913C142.538 34.8286 143.621 34.6475 144.864 34.6475ZM81.4648 34.6475H84.3384V34.5042C84.3384 33.6075 84.14 32.9393 83.7429 32.5006C83.3462 32.0615 82.7333 31.8422 81.905 31.8422C81.4734 31.8422 80.9559 31.8517 80.3516 31.8706C79.7476 31.8898 79.1392 31.9137 78.5266 31.9424C77.9141 31.9708 77.3659 32.0044 76.8826 32.0426V28.6648C77.2797 28.6266 77.7284 28.5884 78.229 28.5502C78.7294 28.512 79.2428 28.4882 79.7691 28.4787C80.2955 28.4692 80.7917 28.4643 81.2579 28.4643C82.7073 28.4643 83.9112 28.6742 84.8692 29.094C85.8268 29.5138 86.5518 30.1722 87.0437 31.0692C87.5355 31.9662 87.7814 33.1397 87.7814 34.59V44.2369H84.9338V41.2574C84.821 41.6544 84.6787 42.0178 84.5066 42.3475C84.1184 43.0918 83.5832 43.6594 82.9016 44.0508C82.22 44.4418 81.3872 44.6377 80.4035 44.6377C79.3851 44.6377 78.4921 44.4373 77.7243 44.0364C76.9561 43.6356 76.3607 43.063 75.9379 42.3188C75.5149 41.5745 75.3035 40.6778 75.3035 39.6281C75.3035 38.4833 75.5583 37.5481 76.0672 36.8228C76.5765 36.0978 77.2927 35.554 78.2161 35.1913C79.1392 34.8286 80.2223 34.6475 81.4648 34.6475ZM158.066 24.3139H159.024L159.017 28.6935H163.347V31.613H159.01L158.998 38.655C158.998 39.4182 159.184 40.0051 159.555 40.4154C159.926 40.8257 160.457 41.0307 161.147 41.0307H163.347V44.4373H161.328C160.034 44.4373 158.968 44.2512 158.131 43.8791C157.294 43.507 156.668 42.877 156.254 41.9897C155.84 41.1022 155.633 39.9049 155.633 38.3971L155.643 32.7168V31.613H153.407V28.6935H155.643V24.2764H158.066V24.3139ZM90.396 28.6935H94.3052L97.1267 34.1608H97.5153L100.182 28.6935H103.858L99.9616 36.1913L104.686 44.2369H100.777L97.4376 38.3687H97.0491L93.891 44.2369H90.2148L94.577 36.3339L90.396 28.6935ZM126.328 31.3341C126.688 30.3547 127.202 29.5986 127.868 29.0656C128.585 28.4931 129.495 28.2068 130.599 28.2068H130.755C132.36 28.2068 133.577 28.8175 134.405 30.0387C135.233 31.2602 135.648 33.0349 135.648 35.363V44.2369H132.049V34.9909C132.049 33.9985 131.795 33.2161 131.286 32.6436C130.777 32.071 130.108 31.7847 129.279 31.7847C128.399 31.7847 127.687 32.1046 127.143 32.7438C126.6 33.3832 126.328 34.2179 126.328 35.2484V44.2369H122.73V24.2764H126.328V31.3341ZM64.292 28.6935H68.4033C69.3615 28.6935 70.2802 29.1143 70.9577 29.8635C71.6352 30.6126 72.0158 31.6284 72.0158 32.6881H72.006C72.0126 32.79 72.0158 32.8927 72.0158 32.9957V44.2369H68.4261V33.9362C68.4261 33.605 68.3069 33.2879 68.0952 33.0539C67.8836 32.8198 67.5968 32.6881 67.2973 32.6881C66 32.6881 64.0473 32.6881 64.0473 32.6881V40.2735H61.1928V33.9362C61.1928 33.2469 60.6873 32.6881 60.064 32.6881C58.7663 32.6881 56.8127 32.6881 56.8127 32.6881V44.2369H53.2354V32.9957C53.2354 32.8927 53.2385 32.79 53.2452 32.6881H53.2354V31.2052L54.4605 28.6935H60.9938L62.3475 31.3159H63.0127L64.292 28.6935ZM147.737 37.0232H144.812C143.984 37.0232 143.349 37.2474 142.909 37.696C142.469 38.1445 142.249 38.7216 142.249 39.4276C142.249 40.134 142.469 40.7062 142.909 41.1453C143.349 41.5843 143.984 41.8037 144.812 41.8037C145.312 41.8037 145.774 41.7035 146.197 41.503C146.62 41.3026 146.973 40.9592 147.258 40.4725C147.543 39.9858 147.703 39.3229 147.737 38.4833V37.0232ZM84.3384 37.0232H81.4132C80.5848 37.0232 79.9504 37.2474 79.5102 37.696C79.0704 38.1445 78.8502 38.7216 78.8502 39.4276C78.8502 40.134 79.0704 40.7062 79.5102 41.1453C79.9504 41.5843 80.5848 41.8037 81.4132 41.8037C81.9135 41.8037 82.3752 41.7035 82.798 41.503C83.221 41.3026 83.5747 40.9592 83.8595 40.4725C84.1441 39.9858 84.3038 39.3229 84.3384 38.4833V37.0232Z" fill="black"/>
<path fill-rule="evenodd" clip-rule="evenodd" d="M40.1921 17.4572C40.1921 17.4572 44.7643 9.47365 45.8354 7.60385C46.1287 7.09175 46.6369 6.78174 47.1838 6.78174C48.6104 6.78174 51.4552 6.78174 53.2476 6.78174C54.1302 6.78174 54.8458 7.57661 54.8458 8.55714C54.8458 10.3651 54.8458 13.0567 54.8458 14.176C54.8458 14.5137 54.7591 14.8444 54.596 15.1293C53.0836 17.7687 45.1565 31.6067 43.132 35.1403C42.8388 35.6523 42.3306 35.9623 41.7847 35.9623C40.375 35.9623 37.5849 35.9623 35.8151 35.9623C34.9325 35.9623 34.2178 35.1674 34.2178 34.1869C34.2178 34.1869 34.2178 32.5853 34.2178 31.7644C34.2178 31.4555 34.297 31.1529 34.446 30.8923C35.1248 29.7066 37.0842 26.2864 37.0842 26.2864C37.3284 25.8611 37.2153 25.296 36.8325 25.0253C36.4496 24.7546 35.9414 24.8801 35.6972 25.3054L35.2993 26.0006L34.7581 26.9449C34.7581 26.9449 31.2636 33.0443 30.0227 35.2104C29.7549 35.6787 29.2901 35.9623 28.7904 35.9623C27.0846 35.9623 23.2545 35.9623 23.2545 35.9623C22.3719 35.9623 21.6563 35.1674 21.6563 34.1869C21.6563 32.3107 21.6563 29.4722 21.6563 28.3575C21.6563 28.0486 21.7355 27.746 21.8854 27.4854L22.6048 26.2293C22.6048 26.2293 22.9424 25.4639 22.3229 25.0253C22.2258 24.9567 22.1202 24.9135 22.0136 24.8952C21.6978 24.836 21.3658 24.9864 21.1829 25.3054C21.1829 25.3054 16.9002 32.7818 15.5084 35.2104C15.2407 35.6787 14.7749 35.9623 14.2752 35.9623H10.1876C9.30505 35.9623 8.58936 35.1674 8.58936 34.1869C8.58936 32.335 8.58936 29.5454 8.58936 28.4016C8.58936 28.0639 8.67609 27.7332 8.83922 27.4482C8.83922 27.4482 12.6081 20.8694 13.8791 18.6505C14.1243 18.2227 14.0875 17.6669 13.7895 17.2834C12.9371 16.1891 11.3031 14.0888 11.3031 14.0888H23.4299C24.3125 14.0888 25.0272 14.8837 25.0272 15.8642L25.0319 19.6855C25.0319 19.9842 25.2091 20.2471 25.4675 20.3306C25.7259 20.4142 26.0021 20.2983 26.1473 20.0463L26.5038 19.4251L27.9238 16.9484V16.9449L31.2165 11.197C31.5097 10.685 32.0179 10.375 32.5648 10.375C33.9914 10.375 36.8353 10.375 38.6287 10.375C39.5113 10.375 40.227 11.1698 40.227 12.1504C40.227 12.1504 40.227 12.9725 40.227 13.5179C40.227 13.8268 40.1477 14.1293 39.9978 14.39C39.5886 15.1054 38.7711 16.5324 38.7711 16.5324C38.5268 16.9577 38.64 17.5228 39.0229 17.7935C39.4057 18.0642 39.9139 17.9387 40.1581 17.5133L40.1921 17.4572Z" fill="#FF4E00"/>
<path fill-rule="evenodd" clip-rule="evenodd" d="M22.604 26.2298C22.604 26.2298 26.0017 20.2988 26.1461 20.0468L26.5029 19.4256L27.9227 16.949L27.9228 16.9455L31.2157 11.1976C31.5089 10.6855 32.0173 10.3755 32.5636 10.3755C33.9904 10.3755 36.8349 10.3755 38.628 10.3755C39.5106 10.3755 40.226 11.1704 40.226 12.1509C40.226 12.1509 40.226 12.9731 40.226 13.5184C40.226 13.8274 40.1467 14.1299 39.9973 14.3905C39.5874 15.106 38.77 16.5329 38.77 16.5329C38.5264 16.9583 38.6393 17.5233 39.0221 17.794C39.4048 18.0647 39.9134 17.9392 40.157 17.514L32.0839 31.6122L30.0223 35.2109C29.754 35.6793 29.2889 35.9629 28.7892 35.9629C27.084 35.9629 23.2536 35.9629 23.2536 35.9629C22.3711 35.9629 21.6558 35.168 21.6558 34.1874C21.6558 32.3113 21.6558 29.4727 21.6558 28.3581C21.6558 28.0491 21.7351 27.7466 21.8844 27.486L22.604 26.2298Z" fill="#FF8A00"/>
<path fill-rule="evenodd" clip-rule="evenodd" d="M26.1473 20.0462L22.6048 26.2292C22.6048 26.2292 22.9424 25.4637 22.3229 25.0252C22.2258 24.9565 22.1202 24.9134 22.0136 24.895C21.6978 24.8358 21.3658 24.9862 21.1829 25.3052C21.1829 25.3052 16.9002 32.7817 15.5084 35.2102C15.2407 35.6785 14.7749 35.9621 14.2752 35.9621H10.1876C9.30505 35.9621 8.58936 35.1672 8.58936 34.1867C8.58936 32.3348 8.58936 29.5453 8.58936 28.4014C8.58936 28.0637 8.67609 27.733 8.83922 27.448C8.83922 27.448 12.6081 20.8692 13.8791 18.6503C14.1243 18.2226 14.0875 17.6668 13.7895 17.2832C12.9371 16.1889 11.3031 14.0886 11.3031 14.0886H23.4299C24.3125 14.0886 25.0272 14.8835 25.0272 15.864L25.0319 19.6853C25.0319 19.984 25.2091 20.2469 25.4675 20.3304C25.7259 20.414 26.0021 20.2981 26.1473 20.0462Z" fill="#FFB800"/>
</g>
<defs>
<clipPath id="clip0_426_12715">
<rect width="172" height="60" fill="white"/>
</clipPath>
</defs>
</svg>
