<svg width="22" height="24" viewBox="0 0 22 24" fill="none" xmlns="http://www.w3.org/2000/svg">
<g clip-path="url(#clip0_451_1194)">
<circle cx="18.6314" cy="20.6313" r="1.63136" transform="rotate(-90 18.6314 20.6313)" fill="#FFB800"/>
<circle cx="12.8417" cy="11.8416" r="2.84172" transform="rotate(-90 12.8417 11.8416)" fill="#FFB800"/>
<circle cx="3.52584" cy="11.7646" r="1.42086" transform="rotate(-90 3.52584 11.7646)" fill="#FFB800"/>
<ellipse cx="18" cy="3.5" rx="1.5" ry="2" transform="rotate(-90 18 3.5)" fill="#FFB800"/>
<path d="M14.9561 3.21432C14.9593 3.87739 15.1687 4.52256 15.5539 5.06144L14.0057 7.67687C13.6226 7.55373 13.2227 7.48848 12.8206 7.48427C10.8788 7.49058 9.18534 8.80619 8.70014 10.687H6.22364C5.63424 9.01879 3.80397 8.14523 2.13682 8.73462C0.468629 9.32402 -0.404936 11.1543 0.184457 12.8214C0.773851 14.4896 2.60413 15.3632 4.27127 14.7738C5.18378 14.4517 5.90052 13.7339 6.22364 12.8214H8.70014C9.18534 14.7022 10.8788 16.0178 12.8206 16.0242C13.2227 16.0199 13.6226 15.9557 14.0057 15.8316L15.5539 18.447C15.1687 18.9859 14.9593 19.631 14.9561 20.2941C14.9561 22.0633 16.3896 23.4968 18.1589 23.4968C19.9281 23.4968 21.3616 22.0633 21.3616 20.2941C21.3616 18.5249 19.9281 17.0914 18.1589 17.0914C17.8694 17.0956 17.5821 17.1387 17.3053 17.2198L15.8423 14.7643C17.4979 13.0982 17.4979 10.4091 15.8423 8.74304L17.3053 6.28759C19.0103 6.7591 20.7743 5.75924 21.2458 4.05526C21.7173 2.35023 20.7175 0.586258 19.0135 0.114742C17.3084 -0.356773 15.5445 0.643089 15.073 2.34707C14.9951 2.62914 14.9561 2.92068 14.9572 3.21327L14.9561 3.21432ZM19.2271 20.2962C19.2271 20.8856 18.7493 21.3634 18.1599 21.3634C17.5705 21.3634 17.0927 20.8856 17.0927 20.2962C17.0927 19.7068 17.5705 19.229 18.1599 19.229C18.7493 19.229 19.2271 19.7068 19.2271 20.2962ZM2.14524 11.7553C2.14524 11.1659 2.62307 10.688 3.21247 10.688C3.80186 10.688 4.27969 11.1659 4.27969 11.7553C4.27969 12.3447 3.80186 12.8225 3.21247 12.8225C2.62307 12.8225 2.14524 12.3447 2.14524 11.7553ZM14.9561 11.7553C14.9561 12.9341 14.0005 13.8908 12.8206 13.8908C11.6408 13.8908 10.6851 12.9351 10.6851 11.7553C10.6851 10.5754 11.6408 9.61977 12.8206 9.61977C14.0005 9.61977 14.9561 10.5754 14.9561 11.7553ZM19.2261 3.21432C19.2261 3.80371 18.7482 4.28154 18.1589 4.28154C17.5695 4.28154 17.0916 3.80371 17.0916 3.21432C17.0916 2.62493 17.5695 2.1471 18.1589 2.1471C18.7482 2.1471 19.2261 2.62493 19.2261 3.21432Z" fill="#FF4E00"/>
</g>
<defs>
<clipPath id="clip0_451_1194">
<rect y="23.5" width="23.5" height="21.3624" transform="rotate(-90 0 23.5)" fill="white"/>
</clipPath>
</defs>
</svg>
