<svg width="24" height="24" viewBox="0 0 24 24" fill="none" xmlns="http://www.w3.org/2000/svg">
<path d="M16.1917 2.33008H7.82172C4.18172 2.33008 2.01172 4.50008 2.01172 8.14008V16.5101C2.01172 20.1501 4.18172 22.3201 7.82172 22.3201H16.1917C19.8317 22.3201 22.0017 20.1501 22.0017 16.5101V8.15008C22.0017 4.51008 19.8317 2.33008 16.1917 2.33008Z" fill="#FFA47D"/>
<path d="M16.4019 8.20996L12.6419 6.17996C12.2419 5.96996 11.7719 5.96996 11.3719 6.17996L7.61185 8.20996C7.34185 8.35996 7.17188 8.64996 7.17188 8.97996C7.17188 9.30996 7.34185 9.59996 7.61185 9.74996L11.3719 11.78C11.5719 11.89 11.7919 11.94 12.0119 11.94C12.2319 11.94 12.4519 11.89 12.6519 11.78L16.4119 9.74996C16.6819 9.59996 16.8519 9.30996 16.8519 8.97996C16.8419 8.64996 16.6719 8.35996 16.4019 8.20996Z" fill="#FF4E00"/>
<path d="M10.7383 12.4704L7.23828 10.7204C6.96828 10.5904 6.65828 10.6004 6.39828 10.7604C6.13828 10.9204 5.98828 11.1904 5.98828 11.4904V14.8004C5.98828 15.3704 6.3083 15.8904 6.8183 16.1404L10.3183 17.8904C10.4383 17.9504 10.5683 17.9804 10.7083 17.9804C10.8683 17.9804 11.0183 17.9404 11.1583 17.8504C11.4183 17.6904 11.5683 17.4204 11.5683 17.1204V13.8104C11.5683 13.2404 11.2583 12.7304 10.7383 12.4704Z" fill="#FF4E00"/>
<path d="M17.5919 10.7604C17.3319 10.6004 17.0219 10.5904 16.7519 10.7204L13.2519 12.4704C12.7419 12.7304 12.4219 13.2404 12.4219 13.8104V17.1204C12.4219 17.4204 12.5718 17.6904 12.8318 17.8504C12.9718 17.9404 13.1219 17.9804 13.2819 17.9804C13.4119 17.9804 13.5419 17.9504 13.6719 17.8904L17.1719 16.1404C17.6819 15.8804 18.0019 15.3704 18.0019 14.8004V11.4904C18.0019 11.1904 17.8519 10.9204 17.5919 10.7604Z" fill="#FF4E00"/>
</svg>
