<svg width="72" height="72" viewBox="0 0 72 72" fill="none" xmlns="http://www.w3.org/2000/svg">
<rect width="72" height="72" rx="36" fill="#00D95F"/>
<path d="M18 52.6673L20.5829 43.0634C18.4999 39.3221 17.8381 34.9565 18.7189 30.7674C19.5998 26.5784 21.9643 22.847 25.3785 20.2579C28.7927 17.6689 33.0276 16.3959 37.3061 16.6724C41.5846 16.949 45.6197 18.7567 48.6709 21.7637C51.7222 24.7707 53.5849 28.7754 53.9173 33.0429C54.2497 37.3103 53.0294 41.5543 50.4805 44.9961C47.9315 48.4379 44.2248 50.8465 40.0406 51.7801C35.8564 52.7136 31.4753 52.1095 27.7012 50.0785L18 52.6673ZM28.169 46.4846L28.7689 46.8399C31.5026 48.4575 34.6954 49.1269 37.8499 48.7438C41.0044 48.3607 43.9433 46.9465 46.2087 44.7218C48.4741 42.497 49.9387 39.5866 50.3743 36.444C50.8098 33.3015 50.1919 30.1034 48.6168 27.3481C47.0416 24.5927 44.5978 22.435 41.666 21.2111C38.7343 19.9872 35.4794 19.7658 32.4085 20.5816C29.3376 21.3973 26.6232 23.2043 24.6884 25.7209C22.7536 28.2376 21.707 31.3225 21.7117 34.495C21.7091 37.1255 22.4378 39.7051 23.8166 41.9466L24.1929 42.5659L22.7489 47.9262L28.169 46.4846Z" fill="white"/>
<path fill-rule="evenodd" clip-rule="evenodd" d="M42.7307 36.9607C42.379 36.6775 41.9672 36.4781 41.5266 36.3778C41.0861 36.2776 40.6284 36.279 40.1885 36.382C39.5275 36.6561 39.1004 37.6916 38.6733 38.2094C38.5832 38.3335 38.4509 38.4205 38.3011 38.4542C38.1513 38.4878 37.9944 38.4658 37.8598 38.3921C35.4399 37.4459 33.4115 35.7107 32.1041 33.4683C31.9926 33.3284 31.9398 33.1507 31.9569 32.9727C31.974 32.7947 32.0596 32.6303 32.1957 32.514C32.672 32.0432 33.0218 31.4601 33.2126 30.8186C33.2549 30.111 33.0925 29.4062 32.7448 28.7882C32.4759 27.9218 31.9643 27.1503 31.2703 26.5649C30.9123 26.4042 30.5154 26.3503 30.1275 26.4097C29.7396 26.4692 29.3771 26.6394 29.084 26.8999C28.575 27.3383 28.171 27.8851 27.9017 28.5001C27.6324 29.115 27.5048 29.7824 27.5281 30.4532C27.5297 30.8298 27.5775 31.2049 27.6705 31.5699C27.9066 32.4469 28.2697 33.2849 28.7484 34.0572C29.0937 34.6487 29.4705 35.2215 29.8771 35.7729C31.1986 37.584 32.8598 39.1217 34.7684 40.3007C35.7262 40.8998 36.7498 41.387 37.8191 41.7525C38.9299 42.2551 40.1563 42.4481 41.3681 42.3108C42.0585 42.2065 42.7127 41.9343 43.273 41.5183C43.8333 41.1023 44.2827 40.5552 44.5815 39.9251C44.757 39.5444 44.8103 39.1189 44.734 38.7068C44.551 37.8642 43.4222 37.3668 42.7307 36.9607Z" fill="white"/>
</svg>
